<svg width="756" height="398" viewBox="0 0 756 398" fill="none" xmlns="http://www.w3.org/2000/svg">
<g clip-path="url(#clip0_38_219)">
<path d="M182.594 375.853C161.979 362.391 146.989 338.194 150.057 313.731C168.62 333.042 193.402 345.153 220.018 347.919C230.286 348.949 241.814 349.022 249.107 356.339C253.644 360.892 255.572 367.546 255.671 373.979C255.77 380.413 254.228 386.745 252.695 392.993L253.072 394.554C228.482 393.644 203.209 389.315 182.594 375.853Z" fill="#F0F0F0"/>
<path d="M150.573 313.725C158.285 332.614 171.74 348.587 189.028 359.377C192.709 361.766 196.742 363.559 200.98 364.69C205.143 365.657 209.489 365.49 213.567 364.206C217.392 363.084 221.176 361.493 225.207 361.324C227.272 361.267 229.325 361.649 231.232 362.444C233.139 363.238 234.857 364.428 236.273 365.934C239.899 369.596 241.996 374.345 243.885 379.061C245.983 384.296 248.079 389.768 252.351 393.646C252.869 394.116 252.111 394.893 251.594 394.424C244.161 387.677 243.343 376.852 237.5 369.025C234.774 365.373 230.933 362.522 226.237 362.401C222.13 362.296 218.227 363.933 214.363 365.102C210.404 366.413 206.185 366.734 202.074 366.035C197.792 365.124 193.697 363.49 189.962 361.202C181.473 356.187 173.824 349.865 167.295 342.468C159.797 334.068 153.787 324.445 149.528 314.014C149.264 313.368 150.312 313.084 150.573 313.725H150.573Z" fill="white"/>
<path d="M183.257 356.232C181.057 358.892 177.984 360.682 174.588 361.282C171.192 361.882 167.694 361.253 164.718 359.508C164.117 359.152 164.64 358.2 165.241 358.556C168.01 360.186 171.268 360.772 174.43 360.207C177.591 359.642 180.447 357.963 182.481 355.473C182.924 354.932 183.698 355.694 183.257 356.231V356.232Z" fill="white"/>
<path d="M211.702 365.03C211.107 357.992 207.887 351.437 202.683 346.672C202.167 346.2 202.925 345.422 203.44 345.894C208.846 350.862 212.183 357.691 212.786 365.016C212.843 365.715 211.758 365.725 211.702 365.03Z" fill="white"/>
<path d="M161.161 333.613C162.226 332.762 163.064 331.658 163.599 330.402C164.134 329.146 164.348 327.776 164.224 326.416C164.159 325.719 165.243 325.71 165.309 326.402C165.439 327.906 165.2 329.418 164.612 330.807C164.024 332.196 163.106 333.42 161.937 334.372C161.835 334.471 161.698 334.527 161.556 334.529C161.414 334.531 161.276 334.478 161.171 334.382C161.068 334.281 161.01 334.143 161.008 334C161.006 333.856 161.061 333.717 161.161 333.613Z" fill="white"/>
<path d="M220.377 268.964C220.431 269.398 220.484 269.832 220.546 270.27C221.294 276.104 222.514 281.867 224.194 287.503C224.317 287.94 224.448 288.382 224.583 288.815C228.775 302.35 235.438 314.986 244.233 326.083C247.737 330.496 251.571 334.635 255.702 338.465C261.407 343.753 268.012 349.033 271.536 355.704C271.912 356.396 272.244 357.111 272.532 357.844L254.943 393.973C254.862 394.035 254.789 394.101 254.708 394.164L254.071 395.638C253.845 395.456 253.613 395.261 253.386 395.079C253.254 394.973 253.126 394.86 252.994 394.755C252.908 394.682 252.821 394.609 252.739 394.548C252.71 394.524 252.681 394.499 252.66 394.479C252.578 394.418 252.507 394.353 252.433 394.297C251.137 393.214 249.847 392.121 248.561 391.016C248.553 391.012 248.553 391.012 248.549 391C238.777 382.56 229.622 373.229 222.172 362.802C221.948 362.488 221.716 362.171 221.5 361.84C218.168 357.122 215.226 352.138 212.704 346.939C211.332 344.088 210.106 341.169 209.029 338.193C206.26 330.5 204.717 322.417 204.455 314.243C203.935 297.948 208.622 281.667 219.535 269.858C219.814 269.556 220.09 269.261 220.377 268.964Z" fill="#F0F0F0"/>
<path d="M220.795 269.268C215.603 289.002 216.748 309.873 224.068 328.918C225.572 333.046 227.715 336.91 230.419 340.37C233.162 343.654 236.733 346.142 240.76 347.576C244.488 348.989 248.465 350.001 251.786 352.298C253.468 353.498 254.878 355.042 255.924 356.827C256.969 358.612 257.626 360.598 257.851 362.655C258.546 367.766 257.367 372.823 256.042 377.728C254.571 383.174 252.957 388.807 254.038 394.481C254.169 395.168 253.097 395.332 252.966 394.645C251.085 384.774 256.936 375.638 256.974 365.863C256.992 361.302 255.638 356.708 251.961 353.779C248.745 351.218 244.645 350.17 240.858 348.773C236.908 347.431 233.347 345.142 230.484 342.103C227.613 338.793 225.325 335.018 223.718 330.939C219.954 321.813 217.645 312.15 216.876 302.306C215.936 291.075 216.921 279.766 219.787 268.868C219.965 268.194 220.972 268.598 220.795 269.268Z" fill="white"/>
<path d="M221.351 322.925C217.996 323.721 214.467 323.297 211.394 321.727C208.322 320.158 205.907 317.545 204.58 314.356C204.313 313.71 205.303 313.264 205.57 313.912C206.8 316.884 209.05 319.317 211.914 320.773C214.778 322.229 218.067 322.611 221.187 321.85C221.865 321.686 222.026 322.761 221.351 322.925V322.925Z" fill="white"/>
<path d="M238.775 347.109C242.53 341.131 243.897 333.954 242.606 327.01C242.477 326.322 243.549 326.159 243.678 326.846C245.008 334.074 243.57 341.54 239.649 347.753C239.275 348.345 238.403 347.698 238.775 347.109Z" fill="white"/>
<path d="M217.299 291.535C218.661 291.498 219.993 291.122 221.175 290.442C222.357 289.761 223.351 288.797 224.069 287.637C224.436 287.04 225.308 287.687 224.943 288.28C224.144 289.559 223.045 290.622 221.741 291.377C220.437 292.131 218.968 292.555 217.463 292.609C217.322 292.627 217.179 292.589 217.064 292.504C216.949 292.42 216.871 292.295 216.845 292.155C216.824 292.012 216.86 291.867 216.945 291.751C217.03 291.635 217.157 291.558 217.299 291.535H217.299Z" fill="white"/>
<path d="M811.723 375.853C832.338 362.391 847.327 338.194 844.26 313.731C825.697 333.042 800.915 345.153 774.299 347.919C764.03 348.949 752.502 349.022 745.21 356.339C740.672 360.892 738.745 367.546 738.645 373.979C738.546 380.413 740.089 386.745 741.622 392.993L741.245 394.554C765.835 393.644 791.108 389.315 811.723 375.853Z" fill="#F0F0F0"/>
<path d="M843.743 313.725C836.032 332.614 822.576 348.587 805.289 359.377C801.608 361.766 797.575 363.559 793.337 364.69C789.174 365.657 784.827 365.49 780.75 364.206C776.924 363.084 773.141 361.493 769.11 361.324C767.045 361.267 764.992 361.649 763.085 362.444C761.178 363.238 759.46 364.428 758.043 365.934C754.417 369.596 752.321 374.345 750.431 379.061C748.334 384.296 746.238 389.768 741.965 393.646C741.448 394.116 742.205 394.893 742.722 394.424C750.155 387.677 750.973 376.852 756.816 369.025C759.542 365.373 763.384 362.522 768.08 362.401C772.186 362.296 776.09 363.933 779.953 365.102C783.912 366.413 788.132 366.734 792.243 366.035C796.525 365.124 800.62 363.49 804.354 361.202C812.843 356.187 820.493 349.865 827.022 342.468C834.52 334.068 840.529 324.445 844.789 314.014C845.052 313.368 844.005 313.084 843.743 313.725H843.743Z" fill="white"/>
<path d="M773.939 268.964C773.886 269.398 773.833 269.832 773.771 270.27C773.023 276.104 771.803 281.867 770.123 287.503C770 287.94 769.869 288.382 769.733 288.815C765.542 302.35 758.879 314.986 750.084 326.083C746.58 330.496 742.746 334.635 738.615 338.465C732.91 343.753 726.305 349.033 722.78 355.704C722.405 356.396 722.073 357.111 721.785 357.844L739.373 393.973C739.455 394.035 739.528 394.101 739.609 394.164L740.245 395.638C740.472 395.456 740.704 395.261 740.93 395.079C741.062 394.973 741.19 394.86 741.322 394.755C741.409 394.682 741.496 394.609 741.578 394.548C741.607 394.524 741.636 394.499 741.657 394.479C741.739 394.418 741.809 394.353 741.884 394.296C743.18 393.214 744.47 392.121 745.755 391.016C745.764 391.012 745.764 391.012 745.768 391C755.54 382.56 764.694 373.229 772.144 362.802C772.369 362.488 772.601 362.171 772.817 361.84C776.149 357.122 779.091 352.138 781.613 346.939C782.984 344.088 784.211 341.169 785.288 338.193C788.057 330.5 789.6 322.417 789.862 314.243C790.382 297.948 785.694 281.667 774.782 269.858C774.503 269.556 774.227 269.261 773.939 268.964Z" fill="#F0F0F0"/>
<path d="M773.521 269.268C778.714 289.002 777.568 309.873 770.248 328.918C768.745 333.046 766.602 336.91 763.898 340.37C761.155 343.654 757.584 346.142 753.557 347.576C749.828 348.989 745.852 350.001 742.531 352.298C740.849 353.498 739.438 355.042 738.393 356.827C737.348 358.612 736.691 360.598 736.465 362.655C735.771 367.766 736.95 372.823 738.275 377.728C739.746 383.174 741.36 388.807 740.279 394.481C740.148 395.168 741.22 395.332 741.351 394.645C743.232 384.774 737.381 375.638 737.343 365.863C737.325 361.302 738.679 356.708 742.356 353.779C745.572 351.218 749.672 350.17 753.459 348.773C757.408 347.431 760.97 345.142 763.832 342.103C766.703 338.793 768.992 335.018 770.599 330.939C774.363 321.813 776.672 312.15 777.441 302.306C778.38 291.075 777.396 279.766 774.53 268.868C774.352 268.194 773.345 268.598 773.521 269.268Z" fill="white"/>
<path d="M755.541 347.109C751.787 341.131 750.419 333.954 751.711 327.01C751.84 326.322 750.767 326.159 750.639 326.846C749.308 334.074 750.747 341.54 754.667 347.753C755.041 348.345 755.913 347.698 755.541 347.109Z" fill="white"/>
<path d="M223.197 257.14C222.417 256.67 221.75 256.034 221.242 255.277C220.734 254.52 220.397 253.661 220.256 252.76C220.116 251.859 220.174 250.938 220.427 250.061C220.679 249.185 221.121 248.375 221.72 247.688L210.754 228.429L222.229 229.172L230.884 247.347C231.968 248.432 232.618 249.878 232.71 251.411C232.802 252.944 232.329 254.457 231.382 255.665C230.434 256.872 229.078 257.689 227.57 257.961C226.061 258.233 224.505 257.941 223.197 257.14Z" fill="#FFB6B6"/>
<path d="M138.781 388.431H146.373L149.985 359.089L138.78 359.09L138.781 388.431Z" fill="#FFB6B6"/>
<path d="M136.844 385.947L151.795 385.947H151.796C154.323 385.947 156.746 386.953 158.533 388.743C160.32 390.533 161.324 392.962 161.324 395.494V395.804L136.845 395.805L136.844 385.947Z" fill="#2F2E41"/>
<path d="M190.798 388.431H198.389L202.001 359.089L190.796 359.09L190.798 388.431Z" fill="#FFB6B6"/>
<path d="M188.861 385.947L203.812 385.947H203.813C206.34 385.947 208.763 386.953 210.55 388.743C212.337 390.533 213.341 392.962 213.341 395.494V395.804L188.861 395.805L188.861 385.947Z" fill="#2F2E41"/>
<path d="M210.319 229.257C210.319 229.257 212.408 259.054 208.295 274.06C204.182 289.066 203.448 379.816 203.448 379.816H189.662L177.714 256.286L150.169 380.251L137.038 379.347L144.239 233.271L210.319 229.257Z" fill="#2F2E41"/>
<path d="M149.936 128.814L160.474 121.109L178.133 124.961L182.914 136.343L191.151 140.435C193.859 141.78 196.201 143.764 197.975 146.217C199.749 148.67 200.902 151.517 201.335 154.515L213.103 235.938L144.239 233.271L135.902 137.379C135.815 136.377 135.929 135.368 136.238 134.412C136.547 133.455 137.045 132.57 137.701 131.81C138.357 131.049 139.159 130.428 140.059 129.984C140.959 129.539 141.939 129.28 142.941 129.222L149.936 128.814Z" fill="#3F3D56"/>
<path d="M195.508 146.795L201.868 155.386L229.571 240.048L216.586 245.257L195.793 205.807L195.508 146.795Z" fill="#3F3D56"/>
<path d="M172.453 117.086C180.947 117.086 187.833 110.186 187.833 101.674C187.833 93.1624 180.947 86.2625 172.453 86.2625C163.958 86.2625 157.072 93.1624 157.072 101.674C157.072 110.186 163.958 117.086 172.453 117.086Z" fill="#FFB9B9"/>
<path opacity="0.1" d="M138.922 165.081L164.022 200.06L192.077 218.392L138.922 165.081Z" fill="black"/>
<path d="M164.301 112.815C163.232 110.675 162.131 108.345 162.54 105.987C162.949 103.629 165.65 101.574 167.734 102.743C168.599 99.6108 172.428 98.2401 175.651 98.6017C178.874 98.9632 181.842 100.521 185.016 101.19C188.189 101.858 192.044 101.328 193.759 98.57L189.655 98.4989L193.929 93.5318L188.975 93.1604C190.691 91.3046 190.235 88.1518 188.573 86.2467C186.912 84.3416 184.391 83.4402 181.931 82.8702C177.021 81.736 171.931 81.6188 166.973 82.5257C164.636 82.8868 162.383 83.672 160.327 84.843C158.391 86.0263 156.791 87.6888 155.681 89.6707C154.484 91.9067 153.837 94.3968 153.794 96.9339C153.721 100.332 154.5 103.695 156.06 106.713C157.621 109.731 159.912 112.309 162.724 114.21" fill="#2F2E41"/>
<path d="M736.974 396.201H259.656C254.741 396.195 250.028 394.236 246.552 390.753C243.076 387.271 241.121 382.549 241.116 377.623V18.5773C241.121 13.6519 243.076 8.92993 246.552 5.44723C250.028 1.96452 254.741 0.00552951 259.656 0H736.974C741.89 0.00561694 746.602 1.96466 750.078 5.44735C753.554 8.93005 755.509 13.652 755.515 18.5773V377.623C755.509 382.548 753.554 387.27 750.078 390.753C746.602 394.236 741.89 396.195 736.974 396.201Z" fill="#E4E4E4"/>
<path d="M616.843 164.854H543.161C539.52 164.854 536.028 163.405 533.453 160.825C530.878 158.245 529.432 154.746 529.432 151.097C529.432 147.448 530.878 143.949 533.453 141.369C536.028 138.789 539.52 137.34 543.161 137.34H616.843C620.484 137.34 623.976 138.789 626.551 141.369C629.126 143.949 630.572 147.448 630.572 151.097C630.572 154.746 629.126 158.245 626.551 160.825C623.976 163.405 620.484 164.854 616.843 164.854Z" fill="white"/>
<path d="M552.314 202.456H534.923C533.588 202.456 532.308 201.925 531.364 200.979C530.42 200.033 529.889 198.75 529.889 197.412C529.889 196.074 530.42 194.791 531.364 193.845C532.308 192.899 533.588 192.368 534.923 192.368H552.314C553.649 192.368 554.93 192.899 555.874 193.845C556.818 194.791 557.348 196.074 557.348 197.412C557.348 198.75 556.818 200.033 555.874 200.979C554.93 201.925 553.649 202.456 552.314 202.456Z" fill="white"/>
<path d="M624.623 202.456H607.232C605.897 202.456 604.617 201.925 603.673 200.979C602.728 200.033 602.198 198.75 602.198 197.412C602.198 196.074 602.728 194.791 603.673 193.845C604.617 192.899 605.897 192.368 607.232 192.368H624.623C625.958 192.368 627.238 192.899 628.182 193.845C629.127 194.791 629.657 196.074 629.657 197.412C629.657 198.75 629.127 200.033 628.182 200.979C627.238 201.925 625.958 202.456 624.623 202.456Z" fill="white"/>
<path d="M588.011 202.456H570.62C569.285 202.456 568.005 201.925 567.06 200.979C566.116 200.033 565.586 198.75 565.586 197.412C565.586 196.074 566.116 194.791 567.06 193.845C568.005 192.899 569.285 192.368 570.62 192.368H588.011C589.346 192.368 590.626 192.899 591.571 193.845C592.515 194.791 593.045 196.074 593.045 197.412C593.045 198.75 592.515 200.033 591.571 200.979C590.626 201.925 589.346 202.456 588.011 202.456Z" fill="white"/>
<path d="M552.314 221.716H534.923C533.588 221.716 532.308 221.185 531.364 220.239C530.42 219.293 529.889 218.01 529.889 216.672C529.889 215.334 530.42 214.051 531.364 213.105C532.308 212.159 533.588 211.628 534.923 211.628H552.314C553.649 211.628 554.93 212.159 555.874 213.105C556.818 214.051 557.348 215.334 557.348 216.672C557.348 218.01 556.818 219.293 555.874 220.239C554.93 221.185 553.649 221.716 552.314 221.716Z" fill="white"/>
<path d="M624.623 221.716H607.232C605.897 221.716 604.617 221.185 603.673 220.239C602.728 219.293 602.198 218.01 602.198 216.672C602.198 215.334 602.728 214.051 603.673 213.105C604.617 212.159 605.897 211.628 607.232 211.628H624.623C625.958 211.628 627.238 212.159 628.182 213.105C629.127 214.051 629.657 215.334 629.657 216.672C629.657 218.01 629.127 219.293 628.182 220.239C627.238 221.185 625.958 221.716 624.623 221.716Z" fill="white"/>
<path d="M588.011 221.716H570.62C569.285 221.716 568.005 221.185 567.06 220.239C566.116 219.293 565.586 218.01 565.586 216.672C565.586 215.334 566.116 214.051 567.06 213.105C568.005 212.159 569.285 211.628 570.62 211.628H588.011C589.346 211.628 590.626 212.159 591.571 213.105C592.515 214.051 593.045 215.334 593.045 216.672C593.045 218.01 592.515 219.293 591.571 220.239C590.626 221.185 589.346 221.716 588.011 221.716Z" fill="white"/>
<path d="M552.314 240.976H534.923C533.588 240.976 532.308 240.444 531.364 239.498C530.42 238.552 529.889 237.269 529.889 235.932C529.889 234.594 530.42 233.311 531.364 232.365C532.308 231.419 533.588 230.887 534.923 230.887H552.314C553.649 230.887 554.93 231.419 555.874 232.365C556.818 233.311 557.348 234.594 557.348 235.932C557.348 237.269 556.818 238.552 555.874 239.498C554.93 240.444 553.649 240.976 552.314 240.976Z" fill="white"/>
<path d="M624.623 240.976H607.232C605.897 240.976 604.617 240.444 603.673 239.498C602.728 238.552 602.198 237.269 602.198 235.932C602.198 234.594 602.728 233.311 603.673 232.365C604.617 231.419 605.897 230.887 607.232 230.887H624.623C625.958 230.887 627.238 231.419 628.182 232.365C629.127 233.311 629.657 234.594 629.657 235.932C629.657 237.269 629.127 238.552 628.182 239.498C627.238 240.444 625.958 240.976 624.623 240.976Z" fill="white"/>
<path d="M588.011 240.976H570.62C569.285 240.976 568.005 240.444 567.06 239.498C566.116 238.552 565.586 237.269 565.586 235.932C565.586 234.594 566.116 233.311 567.06 232.365C568.005 231.419 569.285 230.887 570.62 230.887H588.011C589.346 230.887 590.626 231.419 591.571 232.365C592.515 233.311 593.045 234.594 593.045 235.932C593.045 237.269 592.515 238.552 591.571 239.498C590.626 240.444 589.346 240.976 588.011 240.976Z" fill="white"/>
<path d="M552.314 260.236H534.923C533.588 260.236 532.308 259.704 531.364 258.758C530.42 257.812 529.889 256.529 529.889 255.191C529.889 253.854 530.42 252.571 531.364 251.625C532.308 250.679 533.588 250.147 534.923 250.147H552.314C553.649 250.147 554.93 250.679 555.874 251.625C556.818 252.571 557.348 253.854 557.348 255.191C557.348 256.529 556.818 257.812 555.874 258.758C554.93 259.704 553.649 260.236 552.314 260.236Z" fill="white"/>
<path d="M624.623 260.236H607.232C605.897 260.236 604.617 259.704 603.673 258.758C602.728 257.812 602.198 256.529 602.198 255.191C602.198 253.854 602.728 252.571 603.673 251.625C604.617 250.679 605.897 250.147 607.232 250.147H624.623C625.958 250.147 627.238 250.679 628.182 251.625C629.127 252.571 629.657 253.854 629.657 255.191C629.657 256.529 629.127 257.812 628.182 258.758C627.238 259.704 625.958 260.236 624.623 260.236Z" fill="white"/>
<path d="M588.011 260.236H570.62C569.285 260.236 568.005 259.704 567.06 258.758C566.116 257.812 565.586 256.529 565.586 255.191C565.586 253.854 566.116 252.571 567.06 251.625C568.005 250.679 569.285 250.147 570.62 250.147H588.011C589.346 250.147 590.626 250.679 591.571 251.625C592.515 252.571 593.045 253.854 593.045 255.191C593.045 256.529 592.515 257.812 591.571 258.758C590.626 259.704 589.346 260.236 588.011 260.236Z" fill="white"/>
<path d="M434.698 240.059C460.479 240.059 481.378 219.118 481.378 193.285C481.378 167.453 460.479 146.511 434.698 146.511C408.917 146.511 388.018 167.453 388.018 193.285C388.018 219.118 408.917 240.059 434.698 240.059Z" fill="#CACACA"/>
<path d="M434.698 250.606C431.058 250.602 427.568 249.151 424.994 246.572C422.421 243.993 420.973 240.496 420.969 236.849V149.721C420.967 147.914 421.321 146.124 422.011 144.453C422.7 142.783 423.711 141.265 424.986 139.987C426.261 138.708 427.775 137.694 429.441 137.002C431.108 136.309 432.894 135.953 434.698 135.953C436.502 135.953 438.288 136.309 439.955 137.002C441.621 137.694 443.135 138.708 444.41 139.987C445.685 141.265 446.696 142.783 447.386 144.453C448.075 146.124 448.429 147.914 448.427 149.721V236.849C448.423 240.496 446.976 243.993 444.402 246.572C441.828 249.151 438.338 250.602 434.698 250.606Z" fill="white"/>
<path d="M556.649 158.947H543.835C543.35 158.947 542.884 158.754 542.541 158.41C542.197 158.066 542.004 157.599 542.004 157.113C542.004 156.626 542.197 156.16 542.541 155.816C542.884 155.472 543.35 155.278 543.835 155.278H556.649C557.135 155.278 557.6 155.472 557.944 155.816C558.287 156.16 558.48 156.626 558.48 157.113C558.48 157.599 558.287 158.066 557.944 158.41C557.6 158.754 557.135 158.947 556.649 158.947Z" fill="#E4E4E4"/>
<path d="M576.786 159.405H563.972C563.486 159.405 563.02 159.212 562.677 158.868C562.334 158.524 562.141 158.058 562.141 157.571C562.141 157.085 562.334 156.618 562.677 156.274C563.02 155.93 563.486 155.737 563.972 155.737H576.786C577.271 155.737 577.737 155.93 578.08 156.274C578.424 156.618 578.616 157.085 578.616 157.571C578.616 158.058 578.424 158.524 578.08 158.868C577.737 159.212 577.271 159.405 576.786 159.405Z" fill="#E4E4E4"/>
<path d="M596.922 159.864H584.108C583.623 159.864 583.157 159.671 582.814 159.327C582.47 158.983 582.278 158.516 582.278 158.03C582.278 157.543 582.47 157.077 582.814 156.733C583.157 156.389 583.623 156.195 584.108 156.195H596.922C597.408 156.195 597.873 156.389 598.217 156.733C598.56 157.077 598.753 157.543 598.753 158.03C598.753 158.516 598.56 158.983 598.217 159.327C597.873 159.671 597.408 159.864 596.922 159.864Z" fill="#E4E4E4"/>
<path d="M617.059 160.323H604.245C603.759 160.323 603.294 160.129 602.95 159.785C602.607 159.441 602.414 158.975 602.414 158.488C602.414 158.002 602.607 157.535 602.95 157.191C603.294 156.847 603.759 156.654 604.245 156.654H617.059C617.545 156.654 618.01 156.847 618.353 157.191C618.697 157.535 618.89 158.002 618.89 158.488C618.89 158.975 618.697 159.441 618.353 159.785C618.01 160.129 617.545 160.323 617.059 160.323Z" fill="#E4E4E4"/>
<path d="M301.98 339.567C301.979 341.838 302.428 344.086 303.302 346.182C304.175 348.277 305.456 350.178 307.069 351.774H299.508C297.277 351.774 295.068 351.333 293.007 350.478C290.946 349.623 289.073 348.369 287.496 346.788C285.919 345.208 284.667 343.331 283.814 341.266C282.96 339.201 282.521 336.988 282.521 334.753V58.8045C282.521 56.5693 282.96 54.3559 283.814 52.2908C284.667 50.2258 285.919 48.3494 287.496 46.7688C289.073 45.1883 290.946 43.9345 293.007 43.0791C295.068 42.2237 297.277 41.7834 299.508 41.7834H310.51C307.916 43.2957 305.762 45.4636 304.265 48.0708C302.768 50.678 301.98 53.6331 301.98 56.641L301.98 339.567Z" fill="#CACACA"/>
<path d="M859.91 398H1.08984C0.801345 397.999 0.524958 397.884 0.321257 397.679C0.117555 397.474 0.00315857 397.197 0.00315857 396.908C0.00315857 396.619 0.117555 396.342 0.321257 396.137C0.524958 395.932 0.801345 395.817 1.08984 395.816H859.91C860.199 395.816 860.476 395.931 860.681 396.136C860.885 396.341 861 396.618 861 396.908C861 397.198 860.885 397.475 860.681 397.68C860.476 397.885 860.199 398 859.91 398Z" fill="#CACACA"/>
<path d="M300.149 122.418C294.364 120.794 288.558 119.29 282.731 117.905C262.803 113.139 242.601 109.61 222.239 107.34C218.788 106.429 215.117 106.922 212.026 108.71C208.935 110.498 206.674 113.437 205.736 116.887L195.567 154.49C194.633 157.956 195.11 161.651 196.893 164.765C198.676 167.879 201.62 170.157 205.077 171.099L205.214 171.126C218.669 172.658 232.252 174.786 245.762 177.5C246.97 177.739 248.17 177.987 249.378 178.243C253.707 179.142 258.024 180.102 262.329 181.123C264.215 181.563 266.091 182.022 267.976 182.49C273.047 183.755 278.121 185.103 283.198 186.534C288.845 188.13 294.496 189.833 300.149 191.643C300.763 191.826 301.376 192.019 301.98 192.22V122.94C301.376 122.757 300.763 122.583 300.149 122.418Z" fill="white"/>
<path d="M300.149 122.418C294.364 120.794 288.558 119.29 282.731 117.905C262.803 113.139 242.601 109.61 222.239 107.34C218.788 106.429 215.117 106.922 212.026 108.71C208.935 110.498 206.674 113.437 205.736 116.887L195.567 154.49C194.633 157.956 195.11 161.651 196.893 164.765C198.676 167.879 201.62 170.157 205.077 171.099L205.214 171.126C218.669 172.658 232.252 174.786 245.762 177.5C246.97 177.739 248.17 177.987 249.378 178.243C253.707 179.142 258.024 180.102 262.329 181.123C264.215 181.563 266.091 182.022 267.976 182.49C273.047 183.755 278.121 185.103 283.198 186.534C288.845 188.13 294.496 189.833 300.149 191.643C300.763 191.826 301.376 192.019 301.98 192.22V190.285C301.366 190.093 300.753 189.9 300.149 189.707C294.95 188.047 289.758 186.485 284.571 185.021C282.63 184.461 280.69 183.92 278.749 183.398C275.253 182.453 271.766 181.548 268.288 180.683C266.439 180.215 264.593 179.766 262.75 179.335C262.613 179.298 262.466 179.27 262.329 179.234C259.189 178.491 256.044 177.782 252.892 177.106C251.684 176.849 250.476 176.592 249.268 176.345C234.696 173.318 220.015 170.961 205.489 169.31C202.518 168.481 199.994 166.51 198.466 163.825C196.939 161.14 196.532 157.96 197.334 154.976L207.503 117.364C208.316 114.372 210.281 111.824 212.967 110.282C215.652 108.74 218.839 108.328 221.827 109.137L221.964 109.156C242.068 111.393 262.016 114.86 281.697 119.538C281.898 119.593 282.099 119.639 282.301 119.684C288.269 121.115 294.218 122.662 300.149 124.325C300.753 124.49 301.366 124.664 301.98 124.848V122.94C301.376 122.757 300.763 122.583 300.149 122.418Z" fill="#009F93"/>
<path d="M301.98 123.894V191.248C301.366 191.046 300.763 190.854 300.149 190.661C294.74 188.928 289.312 187.295 283.866 185.764C278.639 184.278 273.395 182.881 268.132 181.573C266.265 181.114 264.407 180.665 262.539 180.224C262.466 179.894 262.393 179.564 262.329 179.234C261.99 177.656 261.725 176.061 261.524 174.456C261.432 173.841 261.368 173.227 261.304 172.603C260.341 162.777 261.683 152.862 265.224 143.649C268.764 134.435 274.406 126.179 281.697 119.538C281.962 119.281 282.237 119.033 282.512 118.795C288.424 120.207 294.304 121.736 300.149 123.381C300.763 123.537 301.376 123.711 301.98 123.894Z" fill="#009F93"/>
<path d="M241.195 151.472L215.74 148.464C214.845 148.358 213.937 148.43 213.069 148.675C212.202 148.921 211.391 149.335 210.683 149.895C209.975 150.454 209.384 151.148 208.943 151.936C208.503 152.725 208.222 153.592 208.116 154.49C208.01 155.387 208.082 156.296 208.327 157.166C208.572 158.035 208.985 158.848 209.544 159.557C210.102 160.267 210.795 160.859 211.581 161.3C212.368 161.742 213.234 162.023 214.13 162.129L239.584 165.137C241.39 165.347 243.205 164.83 244.631 163.7C246.058 162.57 246.978 160.919 247.192 159.11C247.405 157.301 246.893 155.481 245.769 154.049C244.645 152.617 243 151.69 241.195 151.472ZM245.387 158.901C245.228 160.228 244.549 161.438 243.501 162.265C242.452 163.092 241.119 163.469 239.794 163.312L214.34 160.304C213.018 160.143 211.814 159.463 210.991 158.414C210.168 157.365 209.794 156.032 209.95 154.707C210.106 153.382 210.78 152.173 211.824 151.345C212.868 150.517 214.197 150.137 215.52 150.289L240.975 153.297C242.3 153.458 243.508 154.138 244.334 155.187C245.161 156.237 245.539 157.572 245.387 158.901L245.387 158.901Z" fill="#009F93"/>
<path d="M301.98 139.669V171.612C301.392 171.966 300.78 172.279 300.149 172.548C296.864 174.018 293.221 174.493 289.67 173.916C286.119 173.34 282.813 171.736 280.159 169.301C279.903 169.072 279.646 168.824 279.399 168.568C279.152 168.32 278.914 168.054 278.685 167.788C275.922 164.608 274.325 160.578 274.159 156.365C273.992 152.152 275.265 148.008 277.768 144.619C280.271 141.23 283.854 138.798 287.924 137.726C291.993 136.654 296.306 137.006 300.149 138.724C300.776 139.006 301.387 139.321 301.98 139.669Z" fill="white"/>
<path d="M300.149 162.79C292.946 164.294 285.791 165.96 278.686 167.788C276.031 168.467 273.386 169.17 270.75 169.897C267.601 170.769 264.453 171.671 261.304 172.603C257.286 173.795 253.274 175.043 249.268 176.345C248.105 176.73 246.934 177.115 245.762 177.5C234.623 181.224 223.557 185.351 212.674 189.854C209.211 190.722 206.23 192.925 204.38 195.984C202.53 199.043 201.962 202.711 202.798 206.188L211.979 244.047C212.828 247.534 215.024 250.541 218.083 252.409C221.142 254.276 224.816 254.851 228.298 254.007L228.426 253.962C246.323 246.606 264.64 240.322 283.28 235.142C288.845 233.592 294.468 232.131 300.149 230.758C300.763 230.612 301.366 230.465 301.98 230.327V162.414C301.366 162.524 300.763 162.652 300.149 162.79Z" fill="white"/>
<path d="M300.149 162.79C292.946 164.294 285.791 165.96 278.686 167.788C276.031 168.467 273.386 169.17 270.75 169.897C267.601 170.769 264.453 171.671 261.304 172.603C257.286 173.795 253.274 175.043 249.268 176.345C248.105 176.73 246.934 177.115 245.762 177.5C234.623 181.224 223.557 185.351 212.674 189.854C209.211 190.722 206.23 192.925 204.38 195.984C202.53 199.043 201.962 202.711 202.798 206.188L211.979 244.047C212.828 247.534 215.024 250.541 218.083 252.409C221.142 254.276 224.816 254.851 228.298 254.007L228.426 253.962C246.323 246.606 264.64 240.322 283.28 235.142C288.845 233.592 294.468 232.131 300.149 230.758C300.763 230.612 301.366 230.465 301.98 230.327V228.438C301.366 228.585 300.763 228.731 300.149 228.878C299.691 228.988 299.225 229.098 298.767 229.208C293.385 230.52 288.061 231.908 282.795 233.372C282.658 233.409 282.512 233.455 282.374 233.491C263.828 238.659 245.603 244.922 227.795 252.247C224.792 252.952 221.632 252.441 219.003 250.825C216.374 249.209 214.488 246.618 213.754 243.616L204.583 205.757C203.855 202.743 204.35 199.562 205.96 196.912C207.569 194.263 210.161 192.361 213.168 191.624L213.305 191.578C225.159 186.663 237.222 182.205 249.378 178.243C250.549 177.858 251.721 177.482 252.892 177.106C255.766 176.198 258.644 175.315 261.524 174.456C264.562 173.548 267.598 172.673 270.631 171.833C270.832 171.778 271.034 171.723 271.235 171.668C274.201 170.851 277.175 170.063 280.159 169.301C286.777 167.614 293.44 166.064 300.149 164.651C300.753 164.523 301.366 164.395 301.98 164.275V162.414C301.366 162.524 300.763 162.652 300.149 162.79Z" fill="#009F93"/>
<path d="M301.98 163.34V229.383C301.376 229.52 300.763 229.658 300.149 229.804C294.419 231.198 288.714 232.684 283.033 234.262C282.804 234.005 282.585 233.748 282.374 233.491C276.443 226.535 272.085 218.374 269.6 209.571C267.115 200.767 266.561 191.528 267.976 182.49C268.022 182.187 268.077 181.875 268.132 181.573C268.178 181.279 268.233 180.976 268.288 180.683C268.853 177.68 269.636 174.722 270.631 171.833C270.75 171.484 270.869 171.136 270.997 170.787C273.788 170.017 276.589 169.277 279.399 168.568C286.273 166.788 293.19 165.171 300.149 163.716C300.753 163.578 301.366 163.459 301.98 163.34Z" fill="#009F93"/>
<path d="M259.446 223.164C258.76 221.475 257.433 220.128 255.756 219.418C254.08 218.708 252.191 218.693 250.503 219.377L226.751 229.025C225.067 229.713 223.724 231.042 223.017 232.721C222.31 234.401 222.297 236.292 222.981 237.981C223.665 239.67 224.99 241.018 226.664 241.729C228.339 242.44 230.227 242.456 231.914 241.773L255.666 232.125C257.35 231.435 258.694 230.106 259.402 228.426C260.11 226.747 260.126 224.855 259.446 223.164ZM254.979 230.419L231.227 240.076C229.99 240.578 228.604 240.566 227.375 240.045C226.145 239.523 225.173 238.534 224.671 237.295C224.169 236.055 224.178 234.667 224.697 233.435C225.216 232.202 226.201 231.226 227.438 230.721L251.19 221.073C252.427 220.57 253.812 220.579 255.042 221.099C256.272 221.62 257.246 222.608 257.748 223.848C258.251 225.087 258.241 226.475 257.722 227.708C257.203 228.94 256.216 229.915 254.979 230.419Z" fill="#009F93"/>
<path d="M301.98 180.206V216.167C301.376 216.321 300.765 216.443 300.149 216.533C296.474 217.05 292.73 216.446 289.402 214.801C286.074 213.157 283.317 210.547 281.488 207.312C279.66 204.076 278.846 200.365 279.151 196.659C279.456 192.954 280.866 189.426 283.198 186.534C283.409 186.268 283.628 186.011 283.866 185.764C284.086 185.507 284.324 185.259 284.571 185.021C286.595 183.015 289.054 181.505 291.756 180.608C294.458 179.71 297.33 179.45 300.149 179.848C300.766 179.931 301.377 180.051 301.98 180.206Z" fill="white"/>
<path d="M300.149 117.639V209.178C300.763 208.976 301.376 208.784 301.98 208.6V118.474C301.366 118.19 300.763 117.914 300.149 117.639ZM300.149 117.639V209.178C300.763 208.976 301.376 208.784 301.98 208.6V118.474C301.366 118.19 300.763 117.914 300.149 117.639ZM300.149 117.639V209.178C300.763 208.976 301.376 208.784 301.98 208.6V118.474C301.366 118.19 300.763 117.914 300.149 117.639ZM300.149 124.325V229.804C300.763 229.658 301.376 229.52 301.98 229.383V124.848C301.366 124.665 300.753 124.49 300.149 124.325V124.325ZM300.149 124.325V229.804C300.763 229.658 301.376 229.52 301.98 229.383V124.848C301.366 124.665 300.753 124.49 300.149 124.325V124.325ZM300.149 124.325V229.804C300.763 229.658 301.376 229.52 301.98 229.383V124.848C301.366 124.665 300.753 124.49 300.149 124.325V124.325ZM300.149 124.325V229.804C300.763 229.658 301.376 229.52 301.98 229.383V124.848C301.366 124.665 300.753 124.49 300.149 124.325V124.325ZM300.149 124.325V230.758C300.763 230.611 301.366 230.465 301.98 230.327V124.848C301.366 124.665 300.753 124.49 300.149 124.325V124.325ZM699.449 37.6013H319.151C314.114 37.6097 309.286 39.6183 305.724 43.1871C302.162 46.7559 300.157 51.5939 300.149 56.641V339.567C300.158 344.613 302.163 349.45 305.725 353.017C309.286 356.584 314.115 358.591 319.151 358.597H699.449C704.484 358.591 709.311 356.584 712.871 353.016C716.432 349.449 718.435 344.612 718.441 339.567V56.641C718.437 51.5942 716.435 46.7553 712.874 43.1858C709.314 39.6164 704.485 37.608 699.449 37.6013V37.6013ZM716.61 339.567C716.606 344.126 714.796 348.497 711.579 351.721C708.361 354.945 703.999 356.758 699.449 356.763H319.151C314.6 356.759 310.236 354.946 307.017 351.722C303.798 348.498 301.986 344.127 301.98 339.567V56.641C301.986 52.0799 303.798 47.7076 307.017 44.4825C310.235 41.2573 314.599 39.4424 319.151 39.4356H699.449C704 39.4408 708.364 41.2555 711.581 44.4813C714.799 47.707 716.608 52.0803 716.61 56.641V339.567ZM300.149 124.325V228.878C300.763 228.731 301.366 228.585 301.98 228.438V124.848C301.366 124.665 300.753 124.49 300.149 124.325V124.325ZM300.149 124.325V229.804C300.763 229.658 301.376 229.52 301.98 229.383V124.848C301.366 124.665 300.753 124.49 300.149 124.325V124.325ZM300.149 124.325V229.804C300.763 229.658 301.376 229.52 301.98 229.383V124.848C301.366 124.665 300.753 124.49 300.149 124.325V124.325ZM300.149 124.325V229.804C300.763 229.658 301.376 229.52 301.98 229.383V124.848C301.366 124.665 300.753 124.49 300.149 124.325V124.325ZM300.149 117.639V209.178C300.763 208.976 301.376 208.784 301.98 208.6V118.474C301.366 118.19 300.763 117.914 300.149 117.639ZM300.149 117.639V209.178C300.763 208.976 301.376 208.784 301.98 208.6V118.474C301.366 118.19 300.763 117.914 300.149 117.639Z" fill="#2F2E41"/>
<path d="M218.62 214.493C218.261 213.655 217.723 212.905 217.044 212.298C216.365 211.69 215.561 211.239 214.689 210.977C213.818 210.714 212.899 210.646 211.998 210.778C211.097 210.909 210.236 211.237 209.476 211.739L191.929 198.229L191.099 209.721L207.89 220.788C208.814 222.013 210.156 222.855 211.659 223.155C213.162 223.455 214.723 223.192 216.045 222.416C217.368 221.64 218.361 220.405 218.835 218.945C219.309 217.484 219.233 215.9 218.62 214.493V214.493Z" fill="#FFB6B6"/>
<path d="M147.912 132.962L142.138 130.228C142.138 130.228 132.836 132.85 137.355 145.175L164.704 196.225L198.093 215.813L208.502 206.571L175.089 180.08L147.912 132.962Z" fill="#3F3D56"/>
</g>
<defs>
<clipPath id="clip0_38_219">
<rect width="756" height="398" fill="white"/>
</clipPath>
</defs>
</svg>
