<svg width="210" height="47" viewBox="0 0 210 47" fill="none" xmlns="http://www.w3.org/2000/svg">
<path d="M82.1923 34.957C81.8166 35.0102 81.4336 34.9782 81.0726 34.8636C80.7117 34.7489 80.3826 34.5547 80.1109 34.2959C79.8391 34.0371 79.632 33.7207 79.5055 33.3712C79.379 33.0217 79.3366 32.6485 79.3815 32.2804V14.4358C79.3584 14.0559 79.4165 13.6755 79.552 13.3187C79.6874 12.9619 79.8974 12.6365 80.1685 12.3631C80.7239 11.8824 81.4514 11.6357 82.1923 11.6768H90.3716C91.8463 11.6304 93.3162 11.8635 94.7002 12.3631C95.7939 12.7775 96.7376 13.4987 97.4125 14.4358C98.0637 15.4142 98.3923 16.5639 98.3541 17.7302C98.3838 19.0077 97.9564 20.2552 97.1455 21.2579C96.287 22.2569 95.1085 22.9437 93.8007 23.2071V22.6855C95.2604 22.8804 96.6112 23.5473 97.6374 24.5798C98.5873 25.63 99.09 26.9952 99.0428 28.3957C99.0891 29.3124 98.915 30.2269 98.5343 31.066C98.1535 31.9051 97.5768 32.6453 96.8504 33.2275C95.0951 34.4674 92.9558 35.0782 90.7932 34.957H82.1923ZM84.4549 21.2305H89.4581C90.4726 21.3394 91.4954 21.1174 92.3672 20.5991C92.6865 20.3344 92.938 20.0004 93.1015 19.6238C93.265 19.2472 93.336 18.8384 93.3088 18.4303C93.3338 18.0243 93.2616 17.6183 93.0982 17.2443C92.9348 16.8702 92.6845 16.5385 92.3672 16.2752C91.5048 15.729 90.4831 15.4735 89.4581 15.5477H84.4549V21.2305ZM84.4549 31.1411H90.0764C91.1281 31.2259 92.177 30.9491 93.0418 30.3586C93.3737 30.0763 93.6331 29.7218 93.7991 29.3236C93.9651 28.9255 94.0331 28.4948 93.9975 28.0663C94.0308 27.64 93.9618 27.2121 93.7959 26.8165C93.6299 26.4209 93.3717 26.0686 93.0418 25.7877C92.17 25.2141 91.124 24.9478 90.0764 25.0327H84.4549V31.1411Z" fill="url(#paint0_linear_39_387)"/>
<path d="M109.288 35.3277C108.156 35.3448 107.035 35.1052 106.014 34.6277C105.096 34.2175 104.312 33.5665 103.751 32.7471C103.193 31.9374 102.908 30.9776 102.936 30.0018C102.903 29.0038 103.243 28.0282 103.891 27.2565C104.721 26.4503 105.796 25.9299 106.955 25.7741C108.808 25.4358 110.692 25.284 112.577 25.3211H114.361V27.9017H112.633C111.692 27.8831 110.752 27.9428 109.822 28.0801C109.268 28.1374 108.742 28.3468 108.304 28.6841C108.146 28.8406 108.023 29.0277 107.943 29.2333C107.863 29.439 107.828 29.6587 107.841 29.8783C107.833 30.1636 107.888 30.447 108.002 30.7098C108.116 30.9726 108.286 31.2085 108.501 31.4019C109.042 31.8214 109.723 32.0316 110.412 31.9922C111.031 32.0219 111.645 31.8791 112.183 31.5804C112.688 31.2878 113.102 30.8652 113.378 30.3587C113.685 29.8083 113.836 29.1872 113.813 28.5605V24.7171C113.849 24.3472 113.808 23.974 113.692 23.62C113.576 23.2661 113.388 22.9389 113.139 22.6581C112.48 22.1817 111.664 21.9616 110.848 22.0404C110.182 22.0517 109.518 22.1253 108.866 22.2601C108.066 22.4375 107.281 22.6761 106.519 22.9738C106.113 23.1807 105.643 23.2344 105.198 23.1248C104.832 23.015 104.521 22.775 104.327 22.4522C104.12 22.1425 104.012 21.7791 104.018 21.409C104.019 21.0101 104.136 20.6197 104.355 20.2834C104.619 19.8908 105.018 19.6035 105.479 19.4736C106.438 19.0829 107.437 18.793 108.459 18.6088C109.3 18.479 110.151 18.4148 111.003 18.4166C112.446 18.3808 113.882 18.6379 115.219 19.1716C116.296 19.6322 117.183 20.4352 117.734 21.4502C118.345 22.675 118.634 24.0286 118.578 25.3897V32.7197C118.637 33.391 118.442 34.0603 118.03 34.6002C117.801 34.8286 117.524 35.0057 117.218 35.1194C116.912 35.2332 116.585 35.2808 116.259 35.2591C115.933 35.2781 115.606 35.2292 115.301 35.1156C114.996 35.002 114.718 34.8264 114.488 34.6002C114.05 34.07 113.83 33.3998 113.87 32.7197V31.498L114.109 31.6902C113.988 32.3962 113.688 33.0615 113.237 33.6256C112.793 34.1701 112.219 34.5992 111.565 34.8748C110.847 35.1817 110.071 35.3361 109.288 35.3277Z" fill="url(#paint1_linear_39_387)"/>
<path d="M129.666 35.3276C128.84 35.3878 128.011 35.273 127.235 34.9911C126.458 34.7092 125.754 34.2668 125.169 33.6941C124.075 32.3087 123.535 30.5811 123.651 28.8349V13.9279C123.624 13.5849 123.669 13.2402 123.782 12.9145C123.896 12.5889 124.076 12.2892 124.312 12.0336C124.849 11.616 125.515 11.3887 126.202 11.3887C126.888 11.3887 127.555 11.616 128.092 12.0336C128.325 12.2909 128.503 12.5909 128.617 12.9161C128.73 13.2412 128.776 13.5852 128.753 13.9279V28.629C128.694 29.3406 128.904 30.0486 129.343 30.6194C129.541 30.8332 129.784 31.0018 130.056 31.1133C130.328 31.2248 130.622 31.2764 130.917 31.2645C131.085 31.2781 131.254 31.2781 131.423 31.2645H131.929C132.073 31.2344 132.223 31.2486 132.359 31.3051C132.495 31.3616 132.61 31.4577 132.688 31.5802C132.87 32.0157 132.961 32.4825 132.955 32.9529C132.989 33.486 132.846 34.0158 132.547 34.4628C132.228 34.828 131.783 35.0671 131.296 35.1354L130.509 35.2178C130.228 35.3001 129.947 35.3276 129.666 35.3276Z" fill="url(#paint2_linear_39_387)"/>
<path d="M141.738 35.3276C140.601 35.3464 139.476 35.1067 138.45 34.6276C137.534 34.2138 136.752 33.5635 136.187 32.7471C135.64 31.9331 135.36 30.9752 135.386 30.0017C135.349 29.0055 135.684 28.03 136.328 27.2564C137.165 26.4532 138.243 25.9336 139.405 25.774C141.258 25.4353 143.142 25.2835 145.027 25.321H146.826V27.9016H145.069C144.129 27.8838 143.188 27.9435 142.258 28.08C141.706 28.143 141.181 28.3518 140.741 28.684C140.587 28.8431 140.468 29.0309 140.391 29.2362C140.313 29.4414 140.279 29.6598 140.291 29.8782C140.28 30.1639 140.333 30.4486 140.447 30.7119C140.561 30.9752 140.734 31.2108 140.951 31.4018C141.489 31.8181 142.164 32.0281 142.849 31.9921C143.45 32.0019 144.043 31.8511 144.563 31.556C145.083 31.2609 145.511 30.8326 145.8 30.3174C146.094 29.7767 146.243 29.1725 146.236 28.5604V24.717C146.272 24.3471 146.23 23.9739 146.115 23.6199C145.999 23.266 145.81 22.9388 145.561 22.658C144.897 22.1819 144.076 21.962 143.256 22.0403C142.595 22.0509 141.936 22.1244 141.289 22.26C140.487 22.4335 139.702 22.6722 138.942 22.9737C138.535 23.1793 138.065 23.233 137.621 23.1247C137.25 23.0155 136.935 22.7758 136.735 22.4521C136.539 22.1383 136.436 21.7768 136.44 21.4089C136.441 21.0101 136.558 20.6196 136.777 20.2833C137.035 19.8908 137.429 19.603 137.888 19.4735C138.851 19.0809 139.854 18.7909 140.881 18.6087C141.735 18.4623 142.6 18.3843 143.467 18.3753C144.911 18.3375 146.347 18.5947 147.683 19.1303C148.825 19.5722 149.771 20.3937 150.353 21.4501C150.964 22.675 151.253 24.0285 151.197 25.3896V32.7196C151.24 33.3979 151.025 34.068 150.592 34.6001C150.108 35.0246 149.479 35.2593 148.829 35.2593C148.178 35.2593 147.549 35.0246 147.065 34.6001C146.613 34.0766 146.386 33.4027 146.432 32.7196V31.4979L146.671 31.6901C146.555 32.395 146.26 33.0603 145.814 33.6255C145.367 34.1668 144.793 34.5952 144.142 34.8747C143.384 35.1962 142.564 35.3509 141.738 35.3276Z" fill="url(#paint3_linear_39_387)"/>
<path d="M158.701 35.2589C158.353 35.2837 158.004 35.238 157.675 35.1246C157.346 35.0112 157.045 34.8326 156.79 34.6C156.324 34.083 156.087 33.4069 156.129 32.7195V20.997C156.107 20.6586 156.154 20.3192 156.267 19.9987C156.381 19.6782 156.558 19.3829 156.79 19.1302C157.037 18.9074 157.327 18.7355 157.643 18.6246C157.959 18.5138 158.295 18.4663 158.631 18.4851C158.969 18.4628 159.308 18.5086 159.627 18.6196C159.946 18.7305 160.238 18.9043 160.486 19.1302C160.716 19.3836 160.891 19.6793 161.002 19.9999C161.113 20.3205 161.158 20.6595 161.132 20.997V22.8776L160.753 21.7932C161.243 20.746 162.053 19.8731 163.072 19.2949C164.138 18.7037 165.346 18.4005 166.571 18.4164C167.713 18.3754 168.844 18.6362 169.846 19.1714C170.725 19.6865 171.403 20.4741 171.771 21.4088C172.243 22.6266 172.462 23.9236 172.418 25.2248V32.7195C172.46 33.4069 172.223 34.083 171.757 34.6C171.502 34.8326 171.201 35.0112 170.872 35.1246C170.543 35.238 170.194 35.2837 169.846 35.2589C169.505 35.2796 169.163 35.2319 168.841 35.1185C168.52 35.0052 168.226 34.8288 167.977 34.6C167.511 34.083 167.273 33.4069 167.316 32.7195V25.4582C167.389 24.6039 167.172 23.75 166.698 23.0286C166.458 22.7706 166.162 22.5696 165.83 22.4411C165.499 22.3126 165.142 22.26 164.786 22.2873C164.308 22.2642 163.831 22.3404 163.385 22.5107C162.939 22.6811 162.536 22.9418 162.201 23.2756C161.869 23.631 161.613 24.0467 161.447 24.499C161.28 24.9512 161.207 25.4311 161.231 25.9111V32.7744C161.277 33.1101 161.243 33.4515 161.132 33.7724C161.022 34.0933 160.837 34.385 160.592 34.6251C160.348 34.8652 160.05 35.0473 159.722 35.1571C159.394 35.267 159.045 35.3019 158.701 35.2589Z" fill="url(#paint4_linear_39_387)"/>
<path d="M185.488 35.3277C183.85 35.3611 182.229 35.0029 180.766 34.2845C179.459 33.621 178.383 32.594 177.674 31.3333C176.925 29.9376 176.553 28.3787 176.592 26.8035C176.576 25.6096 176.786 24.4232 177.21 23.3033C177.583 22.3025 178.189 21.4002 178.981 20.6678C179.785 19.9235 180.743 19.357 181.792 19.0069C182.975 18.6034 184.221 18.4036 185.474 18.4166C186.222 18.4208 186.967 18.5083 187.694 18.6774C188.508 18.8478 189.294 19.1297 190.027 19.5147C190.433 19.6707 190.764 19.9695 190.955 20.3521C191.125 20.6941 191.194 21.0757 191.154 21.454C191.114 21.8322 190.967 22.1922 190.73 22.4934C190.497 22.8135 190.148 23.0355 189.755 23.1145C189.361 23.1934 188.951 23.1236 188.608 22.9189C188.171 22.6689 187.697 22.4882 187.202 22.3836C186.78 22.2784 186.345 22.2231 185.909 22.2189C185.294 22.2101 184.684 22.3173 184.11 22.5346C183.614 22.7294 183.171 23.035 182.817 23.4268C182.457 23.8284 182.18 24.2946 182.002 24.7995C181.8 25.4439 181.705 26.1159 181.721 26.7898C181.651 28.0212 182.04 29.2357 182.817 30.2077C183.205 30.6264 183.685 30.9547 184.22 31.1685C184.755 31.3824 185.332 31.4762 185.909 31.4431C186.34 31.4379 186.769 31.3872 187.188 31.2921C187.679 31.1882 188.152 31.0172 188.594 30.7842C188.963 30.5749 189.402 30.5158 189.816 30.6195C190.164 30.7193 190.467 30.9325 190.674 31.2235C190.894 31.5337 191.025 31.8956 191.055 32.2719C191.084 32.6482 191.011 33.0254 190.842 33.3648C190.66 33.7468 190.339 34.0497 189.943 34.2159C189.216 34.576 188.446 34.8479 187.652 35.0257C186.944 35.2011 186.218 35.3023 185.488 35.3277Z" fill="url(#paint5_linear_39_387)"/>
<path d="M203.041 35.3276C201.294 35.3686 199.562 35.0114 197.982 34.2844C196.629 33.6352 195.501 32.6142 194.735 31.3469C193.961 29.9789 193.573 28.4346 193.611 26.8721C193.572 25.3363 193.945 23.8171 194.693 22.4659C195.395 21.2197 196.442 20.1921 197.715 19.5009C199.063 18.7689 200.585 18.395 202.127 18.4165C203.239 18.4056 204.341 18.6061 205.374 19.0068C206.334 19.3789 207.198 19.9532 207.905 20.6886C208.612 21.4241 209.144 22.3028 209.464 23.262C209.831 24.3652 210.012 25.5198 209.998 26.6799C210.009 26.8558 209.978 27.0319 209.908 27.194C209.837 27.3561 209.728 27.4998 209.59 27.6133C209.244 27.845 208.828 27.9562 208.41 27.929H197.799V25.3484H206.315L205.767 25.8151C205.793 25.0421 205.659 24.2719 205.374 23.5503C205.139 22.9861 204.732 22.5067 204.207 22.1776C203.639 21.8487 202.985 21.6867 202.324 21.7109C201.575 21.6898 200.837 21.8856 200.202 22.2737C199.576 22.6618 199.086 23.2268 198.797 23.8934C198.468 24.7005 198.31 25.5644 198.333 26.4328V26.6936C198.274 27.3556 198.349 28.0225 198.554 28.6561C198.759 29.2897 199.09 29.8776 199.528 30.3861C200.009 30.81 200.574 31.1344 201.187 31.3396C201.801 31.5449 202.45 31.6267 203.097 31.5803C203.72 31.5691 204.341 31.5048 204.952 31.3881C205.633 31.2588 206.294 31.0467 206.92 30.7567C207.345 30.5183 207.842 30.4309 208.325 30.5096C208.7 30.5686 209.04 30.7589 209.281 31.045C209.507 31.3345 209.639 31.6835 209.66 32.047C209.7 32.4302 209.612 32.8157 209.407 33.1451C209.178 33.5451 208.823 33.8627 208.395 34.0511C207.587 34.4907 206.715 34.8099 205.81 34.9982C204.902 35.2052 203.973 35.3157 203.041 35.3276Z" fill="url(#paint6_linear_39_387)"/>
<path d="M0.877032 36.6179H0.806763C0.806763 39.2937 1.89505 41.8599 3.83222 43.7519C5.76938 45.644 8.39674 46.7069 11.1363 46.7069C13.8759 46.7069 16.5032 45.644 18.4404 43.7519C20.3776 41.8599 21.4658 39.2937 21.4658 36.6179H0.877032Z" fill="url(#paint7_linear_39_387)"/>
<path d="M53.0026 28.0938H36.3348L36.2645 28.1761C36.3647 30.8684 37.5301 33.4178 39.5157 35.2879C41.5012 37.158 44.152 38.203 46.9103 38.203C49.6686 38.203 52.3194 37.158 54.3049 35.2879C56.2904 33.4178 57.4559 30.8684 57.556 28.1761V28.0938H53.0026Z" fill="url(#paint8_linear_39_387)"/>
<path d="M59.383 2.61733C59.1288 1.72986 58.5342 0.972198 57.7228 0.501826C56.9114 0.0314543 55.9457 -0.115451 55.0263 0.0916438L2.92886 11.1552C2.41599 11.2517 1.93063 11.4557 1.50626 11.7531C1.0819 12.0505 0.728616 12.4342 0.47078 12.8778C0.212943 13.3215 0.0566858 13.8145 0.0127829 14.3228C-0.03112 14.8311 0.0383759 15.3427 0.216478 15.8223C0.580562 16.5989 1.21094 17.2269 1.99871 17.5979C2.78648 17.9688 3.68215 18.0593 4.531 17.8538L9.30929 16.838H9.39361V33.1864C9.39361 33.332 9.45284 33.4717 9.55826 33.5746C9.66368 33.6776 9.80667 33.7354 9.95576 33.7354H12.3449C12.4817 33.732 12.6119 33.6773 12.7087 33.5828C12.8054 33.4883 12.8613 33.3612 12.8649 33.2276V16.1929L45.3292 9.32962H45.4135V24.7171C45.4135 24.7904 45.4285 24.8629 45.4576 24.9304C45.4867 24.998 45.5294 25.0591 45.5831 25.1103C45.6368 25.1614 45.7004 25.2016 45.7703 25.2284C45.8401 25.2551 45.9147 25.268 45.9897 25.2662H48.4632C48.616 25.2662 48.7626 25.2069 48.8706 25.1013C48.9787 24.9958 49.0394 24.8526 49.0394 24.7034V8.50602L49.1659 8.43739L56.6847 6.87256C57.1535 6.77621 57.5974 6.58795 57.9895 6.3192C58.3817 6.05044 58.7139 5.70677 58.9662 5.30897C59.2184 4.91118 59.3854 4.46753 59.4571 4.00488C59.5287 3.54223 59.5035 3.07019 59.383 2.61733Z" fill="url(#paint9_linear_39_387)"/>
<defs>
<linearGradient id="paint0_linear_39_387" x1="89.2071" y1="11.671" x2="89.2071" y2="34.982" gradientUnits="userSpaceOnUse">
<stop stop-color="#009F93"/>
<stop offset="1" stop-color="#1A8A82"/>
</linearGradient>
<linearGradient id="paint1_linear_39_387" x1="110.761" y1="18.4133" x2="110.761" y2="35.3286" gradientUnits="userSpaceOnUse">
<stop stop-color="#009F93"/>
<stop offset="1" stop-color="#1A8A82"/>
</linearGradient>
<linearGradient id="paint2_linear_39_387" x1="128.298" y1="11.3887" x2="128.298" y2="35.3432" gradientUnits="userSpaceOnUse">
<stop stop-color="#009F93"/>
<stop offset="1" stop-color="#1A8A82"/>
</linearGradient>
<linearGradient id="paint3_linear_39_387" x1="143.293" y1="18.3717" x2="143.293" y2="35.3299" gradientUnits="userSpaceOnUse">
<stop stop-color="#009F93"/>
<stop offset="1" stop-color="#1A8A82"/>
</linearGradient>
<linearGradient id="paint4_linear_39_387" x1="164.274" y1="18.4122" x2="164.274" y2="35.2768" gradientUnits="userSpaceOnUse">
<stop stop-color="#009F93"/>
<stop offset="1" stop-color="#1A8A82"/>
</linearGradient>
<linearGradient id="paint5_linear_39_387" x1="183.877" y1="18.416" x2="183.877" y2="35.3299" gradientUnits="userSpaceOnUse">
<stop stop-color="#009F93"/>
<stop offset="1" stop-color="#1A8A82"/>
</linearGradient>
<linearGradient id="paint6_linear_39_387" x1="201.804" y1="18.4156" x2="201.804" y2="35.3308" gradientUnits="userSpaceOnUse">
<stop stop-color="#009F93"/>
<stop offset="1" stop-color="#1A8A82"/>
</linearGradient>
<linearGradient id="paint7_linear_39_387" x1="11.1363" y1="36.6179" x2="11.1363" y2="46.7069" gradientUnits="userSpaceOnUse">
<stop stop-color="#009F93"/>
<stop offset="1" stop-color="#1A8A82"/>
</linearGradient>
<linearGradient id="paint8_linear_39_387" x1="46.9103" y1="28.0938" x2="46.9103" y2="38.203" gradientUnits="userSpaceOnUse">
<stop stop-color="#009F93"/>
<stop offset="1" stop-color="#1A8A82"/>
</linearGradient>
<linearGradient id="paint9_linear_39_387" x1="29.7484" y1="0" x2="29.7484" y2="33.7354" gradientUnits="userSpaceOnUse">
<stop stop-color="#009F93"/>
<stop offset="1" stop-color="#1A8A82"/>
</linearGradient>
</defs>
</svg>
