<svg width="614" height="549" viewBox="0 0 614 549" fill="none" xmlns="http://www.w3.org/2000/svg">
<g clip-path="url(#clip0_39_418)">
<path d="M474.903 534.36L462.278 534.359L456.273 485.618H474.905L474.903 534.36Z" fill="#FFB6B6"/>
<path d="M474.565 530.232L461.087 524.744L460.701 524.586L453.259 530.232C449.057 530.233 445.028 531.904 442.057 534.878C439.086 537.852 437.416 541.886 437.416 546.092V546.607H478.118V530.232H474.565Z" fill="#2F2E41"/>
<path d="M588.968 517.931L577.669 523.567L550.573 482.625L567.249 474.306L588.968 517.931Z" fill="#FFB6B6"/>
<path d="M590.013 512.797L587.124 514.234L586.827 514.382L572.339 515.502L571.903 515.532L567.757 523.902C565.895 524.831 564.234 526.118 562.869 527.69C561.504 529.262 560.461 531.087 559.801 533.063C559.142 535.038 558.877 537.124 559.023 539.201C559.169 541.279 559.722 543.307 560.652 545.171L560.879 545.626L597.307 527.458L590.013 512.797Z" fill="#2F2E41"/>
<path d="M466.34 272.377L535.951 274.816L536.436 274.11C536.436 274.11 542.373 287.979 542.373 299.866C542.373 303.818 539.627 329.668 541.023 334.559C541.197 335.167 540.002 336.658 540.394 339.49C540.648 341.328 542.051 339.915 542.373 342.462C542.605 344.291 540.136 345.3 540.394 347.415C540.676 349.726 544.072 357.211 544.378 359.782C547.632 387.148 551.966 426.794 551.966 426.794C551.966 426.794 569.369 473.455 573.051 474.213C579.231 475.485 583.403 486.733 579.978 489.072C578.348 490.186 557.272 497.679 557.272 497.679C556.114 497.889 552.492 496.07 554.799 491.769C555.224 490.977 552.69 492.992 552.269 492.044C551.821 491.036 552.701 487.025 552.188 485.906C547.582 475.858 540.51 461.933 533.809 454.783C523.907 444.219 517.637 430.765 515.912 416.382L500.541 331.066L495.273 354.991L490.914 359.303L492.11 369.356L491.903 379.115L481.018 419.73C481.018 419.73 479.385 495.579 482.007 497.988C483.427 499.292 489.454 515.361 478.049 516.809L457.328 515.209C457.328 515.209 454.536 509.32 455.932 507.224C457.328 505.128 457.244 505.7 455.541 502.27C453.838 498.84 454.536 493.027 454.536 493.027C451.822 465.712 450.751 438.258 451.329 410.814C452.368 365.739 458.663 313.955 458.663 312.9C458.715 311.822 458.517 310.745 458.083 309.757V306.912L460.757 296.83L466.34 272.377Z" fill="#2F2E41"/>
<path d="M564.299 280.897C579.482 280.897 591.79 268.577 591.79 253.378C591.79 238.18 579.482 225.859 564.299 225.859C549.116 225.859 536.808 238.18 536.808 253.378C536.808 268.577 549.116 280.897 564.299 280.897Z" fill="#009F93"/>
<path d="M560.549 267.701C560.074 267.701 559.606 267.59 559.181 267.377C558.756 267.165 558.387 266.856 558.102 266.476L550.602 256.466C550.361 256.144 550.186 255.778 550.086 255.389C549.987 254.999 549.965 254.594 550.021 254.196C550.078 253.798 550.213 253.415 550.417 253.069C550.622 252.723 550.893 252.421 551.214 252.18C551.535 251.939 551.901 251.763 552.29 251.664C552.679 251.564 553.084 251.542 553.481 251.599C553.879 251.656 554.261 251.79 554.607 251.995C554.952 252.2 555.254 252.471 555.495 252.792L560.402 259.341L573.004 240.418C573.227 240.084 573.513 239.796 573.847 239.572C574.181 239.348 574.555 239.192 574.949 239.113C575.343 239.034 575.749 239.033 576.143 239.111C576.537 239.189 576.913 239.344 577.247 239.567C577.581 239.79 577.868 240.077 578.092 240.411C578.315 240.746 578.471 241.121 578.549 241.515C578.628 241.91 578.628 242.316 578.55 242.71C578.472 243.105 578.317 243.48 578.093 243.815L563.093 266.337C562.822 266.745 562.457 267.081 562.029 267.318C561.601 267.555 561.123 267.686 560.634 267.7C560.605 267.7 560.577 267.701 560.549 267.701Z" fill="white"/>
<path d="M577.893 282.471C578.16 281.346 578.179 280.175 577.946 279.042C577.713 277.909 577.235 276.841 576.545 275.913C575.855 274.984 574.97 274.219 573.953 273.67C572.936 273.121 571.81 272.803 570.657 272.736L556.57 224.693L547.041 235.763L562.202 280.746C562.219 282.694 562.949 284.567 564.254 286.012C565.559 287.457 567.348 288.372 569.282 288.585C571.216 288.797 573.161 288.292 574.748 287.166C576.335 286.039 577.454 284.368 577.893 282.471Z" fill="#FFB8B8"/>
<path d="M567.955 259.033L566.124 252.317L568.222 248.305L568.064 247.839L567.43 246.036L564.145 243.401L565.322 240.043L561.166 228.225L560.147 226.174L536.287 178.219L530.567 166.718L529.241 164.638L525.115 158.159L519.474 149.313C518.577 147.899 517.408 146.678 516.036 145.72C514.663 144.763 513.114 144.088 511.478 143.736C510.949 143.619 510.414 143.537 509.875 143.488L509.489 143.458C508.526 143.405 507.56 143.462 506.609 143.627H506.589C504.914 143.918 503.317 144.552 501.899 145.489C500.782 146.213 499.786 147.109 498.949 148.144C497.023 150.536 496.022 153.543 496.129 156.614L496.307 161.448L496.485 165.846L504.857 181.003L505.402 181.993L505.412 182.023L531.171 228.681L538.94 242.747L540.117 244.887L545.342 248.354L543.947 251.841L544.353 257.27L548.796 260.628L555.238 267.176L555.496 267.711L557.475 266.71L557.663 266.611L558.108 266.482L564.234 264.63L567.955 263.51L568.074 263.471L569.093 263.213L567.955 259.033Z" fill="#E6E6E6"/>
<path d="M673.853 477.126C671.987 474.751 669.453 472.99 666.578 472.07C663.703 471.15 660.618 471.113 657.722 471.965L657.089 472.153L651.408 494.352C650.557 491.044 648.736 483.575 647.589 476.264L647.49 475.659L646.925 475.907C640.987 478.535 635.404 481.903 630.31 485.932C621.285 493.179 613.944 502.307 608.798 512.68C603.653 523.054 600.825 534.425 600.513 546.003L600.503 546.429L600.493 546.696L601.245 546.429L617.386 540.653C624.532 541.284 631.728 540.309 638.45 537.8C645.172 535.291 651.249 531.311 656.238 526.151C662.759 519.266 667.232 510.41 671.557 501.841C672.823 499.345 674.12 496.769 675.446 494.293C676.925 491.6 677.564 488.525 677.28 485.465C676.996 482.404 675.802 479.5 673.853 477.126Z" fill="#F2F2F2"/>
<path d="M259.658 108.61H257.679V32.2909H400.833V34.2721H259.658V108.61Z" fill="#3F3D56"/>
<path d="M422.785 55.0383C437.968 55.0383 450.276 42.7175 450.276 27.5191C450.276 12.3207 437.968 0 422.785 0C407.602 0 395.294 12.3207 395.294 27.5191C395.294 42.7175 407.602 55.0383 422.785 55.0383Z" fill="#009F93"/>
<path d="M419.035 41.8415C418.56 41.8415 418.092 41.7308 417.667 41.5183C417.242 41.3057 416.873 40.9971 416.588 40.6168L409.088 30.6065C408.847 30.2849 408.672 29.9189 408.572 29.5295C408.473 29.1401 408.451 28.7349 408.508 28.3369C408.564 27.939 408.699 27.5561 408.904 27.2102C409.108 26.8643 409.379 26.5622 409.7 26.321C410.021 26.0798 410.387 25.9043 410.776 25.8046C411.165 25.7048 411.57 25.6828 411.967 25.7396C412.365 25.7965 412.747 25.9312 413.093 26.136C413.438 26.3408 413.74 26.6118 413.981 26.9334L418.888 33.4819L431.49 14.5593C431.713 14.2244 431.999 13.9367 432.333 13.7127C432.667 13.4886 433.041 13.3326 433.435 13.2536C433.829 13.1745 434.235 13.1739 434.629 13.2519C435.023 13.3299 435.398 13.4849 435.733 13.708C436.067 13.9311 436.354 14.218 436.578 14.5522C436.801 14.8865 436.957 15.2616 437.035 15.656C437.114 16.0505 437.114 16.4566 437.036 16.8511C436.958 17.2457 436.803 17.6209 436.579 17.9554L421.579 40.4783C421.308 40.8856 420.943 41.2219 420.515 41.4589C420.087 41.6959 419.609 41.8268 419.12 41.8405C419.091 41.841 419.063 41.8415 419.035 41.8415Z" fill="white"/>
<path d="M162.677 293.899H160.697V370.219H303.851V368.237H162.677V293.899Z" fill="#3F3D56"/>
<path d="M325.804 397.789C340.987 397.789 353.295 385.469 353.295 370.27C353.295 355.072 340.987 342.751 325.804 342.751C310.621 342.751 298.312 355.072 298.312 370.27C298.312 385.469 310.621 397.789 325.804 397.789Z" fill="#009F93"/>
<path d="M322.053 384.593C321.578 384.593 321.11 384.482 320.686 384.269C320.261 384.057 319.892 383.748 319.607 383.368L312.107 373.358C311.866 373.036 311.691 372.67 311.591 372.281C311.491 371.891 311.469 371.486 311.526 371.088C311.583 370.69 311.717 370.307 311.922 369.961C312.127 369.615 312.397 369.313 312.719 369.072C313.04 368.831 313.405 368.655 313.795 368.556C314.184 368.456 314.588 368.434 314.986 368.491C315.383 368.548 315.766 368.682 316.111 368.887C316.457 369.092 316.759 369.363 317 369.684L321.907 376.233L334.509 357.31C334.732 356.976 335.018 356.688 335.352 356.464C335.685 356.24 336.06 356.084 336.454 356.005C336.848 355.926 337.254 355.925 337.648 356.003C338.042 356.081 338.417 356.236 338.751 356.459C339.086 356.682 339.373 356.969 339.596 357.303C339.82 357.638 339.975 358.013 340.054 358.407C340.133 358.802 340.133 359.208 340.055 359.602C339.976 359.997 339.821 360.372 339.598 360.706L324.598 383.229C324.327 383.637 323.962 383.973 323.534 384.21C323.106 384.447 322.627 384.578 322.138 384.592C322.11 384.592 322.081 384.593 322.053 384.593Z" fill="white"/>
<path d="M543.363 296.706C543.392 298.792 543.057 300.867 542.373 302.838L542.225 302.808C524.649 305.851 508.97 306.349 501.717 295.549C492.254 283.488 479.238 283.624 464.719 288.92L462.997 287.057L460.068 283.897L462.76 280.846L460.068 274.962L462.314 267.701L465.184 267.176L464.412 260.925L463.205 257.27L466.748 253.376L469.756 243.659L467.589 223.321C464.623 195.445 470.37 167.334 484.036 142.864L492.26 135.474L495.674 132.403L500.256 123.844L505.095 124.409L518.197 125.925L518.643 126.994L521.859 134.761L538.801 152.978L538.039 160.665L537.703 164.053L537.455 166.49L536.287 178.219L531.527 226.135L531.171 228.681L527.341 256.229C533.566 262.252 539.068 273.852 541.71 284.452C542.007 285.631 541.166 286.829 541.384 287.978C541.691 289.603 543.027 291.148 543.175 292.664C543.313 294.007 543.376 295.356 543.363 296.706Z" fill="#E6E6E6"/>
<path d="M509.807 120.777C522.376 120.777 532.564 110.578 532.564 97.9963C532.564 85.4151 522.376 75.2161 509.807 75.2161C497.239 75.2161 487.05 85.4151 487.05 97.9963C487.05 110.578 497.239 120.777 509.807 120.777Z" fill="#FFB6B6"/>
<path d="M537.24 91.7817C535.893 87.5784 532.199 84.0221 527.814 83.5573C528.146 80.7656 527.707 77.9362 526.544 75.377C525.381 72.8179 523.539 70.6272 521.218 69.0434C518.898 67.4596 516.188 66.5435 513.383 66.3948C510.578 66.2461 507.787 66.8705 505.312 68.2C504.786 67.5676 504.106 67.0817 503.338 66.7894C502.57 66.4972 501.739 66.4084 500.927 66.5318C499.302 66.7998 497.77 67.4715 496.472 68.4854C493.248 70.8459 490.724 74.0373 489.168 77.72C487.612 81.4027 487.083 85.4388 487.637 89.3986C487.627 87.3899 488.516 91.2761 491.064 91.6196C493.189 92.0473 495.211 92.8822 497.019 94.0783C498.827 95.2741 500.843 96.1199 502.962 96.5717C505.101 96.8849 505.652 105.467 504.124 110.995C503.835 112.043 503.688 113.448 504.652 113.947C505.84 114.562 507.041 113.016 508.37 112.866C508.966 112.856 509.542 113.079 509.978 113.487C510.413 113.895 510.674 114.456 510.704 115.052C510.705 115.65 510.563 116.24 510.291 116.772C510.019 117.304 509.623 117.764 509.137 118.112C508.161 118.799 507.079 119.323 505.935 119.665L506.319 120.21C506.655 120.833 507.197 121.32 507.852 121.588C508.507 121.855 509.234 121.886 509.91 121.675C511.431 123.512 527.114 118.41 527.878 115.057C531.163 112.094 533.89 108.567 535.932 104.642C537.972 100.674 538.439 96.0804 537.24 91.7817Z" fill="#2F2E41"/>
<path d="M555.644 161.161C555.328 163.815 552.844 165.797 550.231 166.351C548.903 166.607 547.54 166.631 546.203 166.421C544.898 166.227 543.608 165.939 542.344 165.559C540.78 165.113 539.233 164.611 537.703 164.053C533.33 162.49 529.115 160.517 525.115 158.159C522.089 156.391 519.193 154.412 516.446 152.235C515.021 151.106 513.639 149.927 512.299 148.699L513.972 149.491C512.477 147.48 510.983 145.469 509.489 143.458C508.044 141.517 506.602 139.575 505.164 137.634C505.075 137.515 505.006 137.435 504.976 137.396V137.386C504.313 136.504 503.66 135.623 503.007 134.741C501.038 132.096 499.098 128.213 501.364 125.826C501.847 125.361 502.434 125.017 503.076 124.822C503.717 124.628 504.395 124.588 505.055 124.706C505.766 124.799 506.453 125.02 507.084 125.36C508.815 126.482 510.284 127.966 511.389 129.709C512.933 127.46 515.931 126.628 518.643 126.994C518.791 127.004 518.93 127.024 519.068 127.044C521.889 127.529 523.106 126.004 525.55 127.5C526.688 128.193 527.381 131.759 528.519 132.453C529.162 132.849 531.547 133.443 532.2 133.849C533.487 134.642 533.16 137.604 534.457 138.396C535.417 138.981 537.99 137.406 538.949 137.99C539.959 138.614 541.364 142.735 542.373 143.349C544.382 144.588 545.995 142.329 548.004 143.557C550.587 145.152 553.338 146.926 554.427 149.759C555.387 152.255 554.15 155.673 551.765 156.386C552.904 156.522 553.946 157.096 554.67 157.987C555.394 158.878 555.743 160.016 555.644 161.161Z" fill="#E6E6E6"/>
<path opacity="0.2" d="M537.702 164.053L537.455 166.49C534.65 166.22 531.891 165.597 529.241 164.638C525.754 163.466 522.728 161.214 520.602 158.209C519.256 156.188 517.851 154.177 516.446 152.235C514.11 148.986 511.795 145.955 509.875 143.488C507.529 140.506 505.768 138.347 505.164 137.634C505.075 137.515 505.006 137.436 504.976 137.396L504.947 137.366L504.976 137.386C516.735 152.283 527.841 160.874 538.039 160.665C538.039 160.665 539.236 164.608 537.702 164.053Z" fill="black"/>
<path d="M430.097 44.7558C429.807 45.8757 429.767 47.0456 429.977 48.183C430.188 49.3204 430.646 50.3977 431.318 51.339C431.989 52.2803 432.859 53.0627 433.866 53.6311C434.872 54.1995 435.991 54.5401 437.143 54.6289L450.299 102.935L460.04 92.0521L445.752 46.7843C445.772 44.8367 445.078 42.9492 443.802 41.4794C442.525 40.0097 440.754 39.0598 438.824 38.8097C436.895 38.5597 434.94 39.0269 433.332 40.1228C431.723 41.2187 430.572 42.8672 430.097 44.7558Z" fill="#FFB8B8"/>
<path d="M507.331 168.283L507.242 163.885L498.949 148.144L498.643 147.57L498.623 147.54L492.26 135.474L461.555 77.2005L458.257 75.988L458.422 71.2545L458.257 66.0819L454.295 63.4232L452.606 60.2175L450.211 60.9011H450.201L450.132 60.9209L439.662 63.863H439.652L437.475 65.0913L435.496 71.035L435.062 73.8489L435.496 78.9599L440.444 79.9505L438.805 85.1912L443.779 100.268C450.003 126.618 458.504 149.363 473.18 162.349L474.387 164.331L483.937 179.972C485.24 182.112 487.147 183.817 489.417 184.873C491.687 185.929 494.219 186.289 496.693 185.906H496.703C498.383 185.645 499.992 185.045 501.433 184.143C502.763 183.322 503.924 182.256 504.857 181.003C506.563 178.736 507.464 175.965 507.42 173.127L507.331 168.283Z" fill="#E6E6E6"/>
<path d="M680.822 548.696L411.896 549C411.583 549 411.284 548.876 411.063 548.655C410.842 548.433 410.718 548.133 410.718 547.821C410.718 547.508 410.842 547.208 411.063 546.986C411.284 546.765 411.583 546.641 411.896 546.641L680.822 546.337C681.134 546.337 681.434 546.461 681.655 546.682C681.876 546.903 682 547.203 682 547.516C682 547.829 681.876 548.129 681.655 548.35C681.434 548.571 681.134 548.696 680.822 548.696Z" fill="#CACACA"/>
<path d="M82.7593 152.265C82.7428 137.374 88.4262 123.043 98.6408 112.218L63.5856 63.9203C62.1426 61.9305 60.2882 60.2753 58.1487 59.0676C56.0091 57.8598 53.6347 57.1277 51.187 56.9212C48.7394 56.7147 46.2761 57.0386 43.9647 57.8708C41.6534 58.7031 39.5484 60.0242 37.793 61.7441C25.7846 73.462 16.2512 87.4761 9.75888 102.954C3.26661 118.432 -0.0520631 135.058 -7.3199e-06 151.845C9.0457e-05 158.184 0.472215 164.515 1.41242 170.784C1.78127 173.262 2.68577 175.63 4.06287 177.723C5.43997 179.816 7.25652 181.582 9.38581 182.9C11.4911 184.204 13.8552 185.033 16.3134 185.329C18.7716 185.624 21.2647 185.38 23.6187 184.612L84.1485 164.924C83.2273 160.768 82.7615 156.523 82.7593 152.265Z" fill="#F2F2F2"/>
<path d="M85.9785 171.402L23.0495 191.87C20.7206 192.624 18.5807 193.87 16.7748 195.523C14.969 197.177 13.5393 199.2 12.5829 201.456C11.6264 203.711 11.1653 206.146 11.231 208.595C11.2967 211.044 11.8875 213.45 12.9635 215.651C21.9251 233.851 35.1356 249.621 51.4765 261.626C67.8173 273.632 86.8074 281.519 106.839 284.621C109.279 284.996 111.77 284.839 114.144 284.159C116.517 283.48 118.715 282.295 120.588 280.685C122.458 279.08 123.959 277.089 124.987 274.848C126.016 272.607 126.548 270.17 126.547 267.704V208.869C117.227 206.448 108.648 201.762 101.571 195.227C94.4939 188.691 89.138 180.507 85.9785 171.402Z" fill="#E6E6E6"/>
<path d="M275.223 208.163C274.16 205.638 272.566 203.371 270.551 201.517C268.535 199.663 266.144 198.265 263.54 197.419L194.908 175.096C190.901 184.528 184.49 192.74 176.315 198.911C168.14 205.081 158.489 208.993 148.328 210.255V281.836C148.33 284.583 148.924 287.298 150.072 289.794C151.219 292.29 152.892 294.509 154.975 296.297C157.059 298.086 159.504 299.402 162.144 300.157C164.783 300.911 167.554 301.086 170.267 300.668C192.566 297.215 213.705 288.435 231.896 275.07C250.086 261.706 264.792 244.151 274.768 223.892C275.968 221.456 276.629 218.791 276.707 216.077C276.786 213.363 276.279 210.664 275.223 208.163Z" fill="#3F3D56"/>
<path d="M258.171 43.9765C256.217 42.0618 253.874 40.591 251.301 39.6645C248.728 38.738 245.986 38.3773 243.261 38.6072C240.536 38.8371 237.893 39.6521 235.511 40.9966C233.129 42.3412 231.065 44.1837 229.459 46.3988L182.537 111.047C187.935 116.464 192.214 122.892 195.13 129.964C198.046 137.036 199.542 144.614 199.533 152.265C199.533 153.688 199.464 155.095 199.364 156.492L273.95 180.752C276.587 181.604 279.379 181.87 282.129 181.532C284.88 181.194 287.524 180.26 289.877 178.795C292.23 177.329 294.236 175.368 295.754 173.048C297.273 170.727 298.268 168.103 298.67 165.359C299.716 158.38 300.242 151.332 300.242 144.275C300.3 125.588 296.605 107.08 289.378 89.8506C282.151 72.6208 271.539 57.0206 258.171 43.9765Z" fill="#009F93"/>
<path d="M141.146 93.819C151.191 93.8076 161.068 96.4038 169.812 101.354L198.451 61.8955C199.911 59.886 200.918 57.5833 201.402 55.1464C201.887 52.7094 201.837 50.1963 201.257 47.7803C200.695 45.4105 199.627 43.1909 198.125 41.2747C196.623 39.3585 194.723 37.7914 192.557 36.6815C174.876 27.6799 155.324 22.974 135.487 22.9451C115.65 22.9162 96.0854 27.565 78.3776 36.515C76.1444 37.6429 74.183 39.2434 72.6291 41.2054C71.0751 43.1675 69.9659 45.4443 69.3783 47.878C68.7988 50.2771 68.7473 52.7735 69.2274 55.1945C69.7075 57.6154 70.7077 59.9029 72.1587 61.8984L104.648 106.661C114.992 98.334 127.872 93.8022 141.146 93.819Z" fill="#E6E6E6"/>
</g>
<defs>
<clipPath id="clip0_39_418">
<rect width="614" height="549" fill="white"/>
</clipPath>
</defs>
</svg>
